<svg width="71" height="106" viewBox="0 0 71 106" fill="none" xmlns="http://www.w3.org/2000/svg">
<path d="M61.0275 1.5946H68.6889V103.752H1.6062V82.9799L61.0275 1.5946Z" fill="#FFF200"/>
<path d="M1.57092 1.57068L1.6057 82.8093L61.0244 1.59467L1.57092 1.57068Z" fill="#ED1D24"/>
<path d="M2.94996 103.733V1.57082L1.57129 2.94945H68.7326L67.3539 1.57082V103.733L68.7326 102.355H1.57129L2.94996 103.733ZM70.1126 103.733V1.57082V0.192139H68.7326H1.57129H0.191284V1.57082V103.733V105.112H1.57129H68.7326H70.1126V103.733Z" fill="black"/>
<path d="M60.0254 2.96326L0.328125 84.4979L7.26546 84.8139L59.5014 13.9739L60.0254 2.96326Z" fill="#0095DA"/>
<path d="M52.6363 51.1316L25.2043 33.0103L54.8003 18.1876L52.6363 51.1316Z" fill="black"/>
<path d="M50.9442 81.2808L30.6722 81.2846L40.8562 63.5979L50.9442 81.2808Z" fill="black"/>
<path d="M35.9535 91.2382C35.9988 87.0662 45.1935 87.4062 48.9842 91.2382H35.9535Z" fill="#ED1D24"/>
</svg>
