<svg width="511" height="500" viewBox="0 0 511 500" fill="none" xmlns="http://www.w3.org/2000/svg">
<path d="M411 108.01C411.39 183.32 410.71 258.7 411 334.01H112.5C105.82 340.16 92.92 344.43 86.61 350.14C85.64 351.02 84.86 351.44 85 353.01C83.49 351.79 82.36 352.74 81 353.44C72.33 357.88 61.98 366.75 53.72 370.22C52.46 370.75 51.46 371.26 50 371V81.51L110.32 44.83L114.56 43.07L391.5 43C402.79 44.72 410.04 52 411.03 63.47C412.21 77.13 410.92 93.93 410.99 108.01H411ZM322 108.01H219V269.01H259V204.01H312V176.51C312 176.4 310.61 175.01 310.5 175.01H259V137.01H322V108.01Z" fill="#F36D22"/>
<path d="M411 108.01H440V455.51C440 455.62 438.61 457.01 438.5 457.01H103.5C95.89 457.01 85.86 448.23 85.09 440.42L85 353.01C84.85 351.45 85.63 351.03 86.61 350.14C92.92 344.43 105.82 340.16 112.5 334.01H411C410.71 258.7 411.39 183.32 411 108.01ZM184 379.01H198C198.4 379.01 197.89 374.38 202.71 373.23C209.09 371.7 214.32 374.35 212.98 381.47C211.64 388.59 200.54 386.47 199.99 387C199.63 387.35 199.64 396.66 199.99 397.01C200.57 397.59 212.3 395.2 214.55 401.94C216.68 408.32 213.43 413.88 206.5 414.09C196.96 414.38 197.65 407 196.99 407H182.99C183.42 425.76 210.38 429.38 222.93 420.44C231.38 414.42 233.38 400.35 224.33 394.17C222.48 392.9 216.93 391.99 219.61 389.94C223.32 387.1 227.3 387.16 228.02 380.52C230.67 355.94 185.41 356.1 183.99 379.01H184ZM282 379.01C282.63 357.57 246.88 356.86 239.1 373.62C235.94 380.44 235.85 406.87 238.8 413.7C246.16 430.7 281.73 428.68 283.99 407.52C286.19 386.94 268.18 377.86 252 389.01C251.84 382.29 250.54 373.78 259.49 372.97C269.18 372.09 268.67 378.81 269.61 379.08C272.43 379.88 278.64 378.38 282 379.02V379.01ZM310.76 362.27C303.49 363.25 296.68 367.41 293.81 374.31C290.74 381.68 290.82 407.7 294.8 414.72C302.97 429.14 331.16 428.83 337.2 412.69C340.44 404.02 340.53 377.37 334.87 369.65C330.02 363.05 318.38 361.24 310.78 362.26L310.76 362.27Z" fill="#934020"/>
<path d="M322 108.01V137.01H259V175.01H310.5C310.61 175.01 312 176.4 312 176.51V204.01H259V269.01H219V108.01H322Z" fill="white"/>
<path d="M282 379.01C278.65 378.37 272.43 379.87 269.61 379.07C268.67 378.8 269.19 372.09 259.49 372.96C250.54 373.77 251.84 382.28 252 389C268.18 377.85 286.19 386.92 283.99 407.51C281.73 428.67 246.16 430.69 238.8 413.69C235.84 406.86 235.93 380.43 239.1 373.61C246.88 356.85 282.62 357.56 282 379V379.01ZM258.74 395.24C247.35 397.23 249.81 416.82 263.28 413.8C271.22 412.02 273.33 392.69 258.74 395.24Z" fill="white"/>
<path d="M310.76 362.271C318.37 361.241 330 363.061 334.85 369.661C340.52 377.371 340.43 404.031 337.18 412.701C331.14 428.831 302.96 429.151 294.78 414.731C290.8 407.711 290.72 381.701 293.79 374.321C296.66 367.421 303.47 363.261 310.74 362.281L310.76 362.271ZM309.28 411.731C313.79 416.231 322.41 414.101 323.77 407.281C324.69 402.671 324.6 385.481 323.91 380.601C322.41 369.961 309.44 370.551 307.43 378.941C306.32 383.571 306.4 400.421 306.97 405.531C307.15 407.191 308.17 410.621 309.28 411.731Z" fill="white"/>
<path d="M184 379.01C185.42 356.1 230.68 355.94 228.03 380.52C227.31 387.16 223.33 387.1 219.62 389.94C216.93 392 222.48 392.91 224.34 394.17C233.39 400.35 231.39 414.42 222.94 420.44C210.39 429.38 183.44 425.76 183 407H197C197.65 407 196.97 414.37 206.51 414.09C213.43 413.88 216.69 408.32 214.56 401.94C212.31 395.2 200.58 397.59 200 397.01C199.65 396.66 199.64 387.35 200 387C200.55 386.47 211.68 388.41 212.99 381.47C214.3 374.53 209.1 371.7 202.72 373.23C197.9 374.38 198.41 379.01 198.01 379.01H184.01H184Z" fill="white"/>
<path d="M258.74 395.239C273.34 392.689 271.23 412.009 263.28 413.799C249.8 416.829 247.35 397.229 258.74 395.239Z" fill="#934020"/>
<path d="M309.28 411.73C308.17 410.62 307.16 407.19 306.97 405.53C306.4 400.42 306.32 383.57 307.43 378.94C309.44 370.54 322.4 369.95 323.91 380.6C324.6 385.48 324.69 402.67 323.77 407.28C322.41 414.1 313.79 416.23 309.28 411.73Z" fill="#934020"/>
</svg>
