<svg width="700" height="700" viewBox="0 0 700 700" fill="none" xmlns="http://www.w3.org/2000/svg">
<rect width="700" height="700" rx="100" fill="#F7DF1E"/>
<path d="M467.629 529.2C479.142 548.75 495.261 562.55 521.742 562.55C544.769 562.55 559.736 551.05 559.736 534.95C559.736 516.55 544.769 509.65 519.439 498.15L505.623 492.4C465.326 475.15 438.846 454.45 438.846 409.6C438.846 368.2 469.932 336 519.439 336C555.131 336 580.46 348.65 597.73 380.85L555.131 408.45C545.92 391.2 535.558 384.3 519.439 384.3C503.32 384.3 492.958 394.65 492.958 408.45C492.958 424.55 503.32 431.45 527.499 441.8L541.315 447.55C588.519 468.25 615 487.8 615 534.95C615 584.4 575.855 612 522.893 612C471.083 612 437.694 587.85 421.576 555.65L467.629 529.2ZM271.902 533.8C281.113 548.75 288.021 562.55 307.593 562.55C326.015 562.55 337.528 555.65 337.528 528.05V337.15H392.792V525.75C392.792 583.25 359.404 608.55 309.896 608.55C264.994 608.55 239.665 585.55 227 557.95L271.902 533.8Z" fill="black"/>
</svg>
