<svg width="155" height="149" viewBox="0 0 155 149" fill="none" xmlns="http://www.w3.org/2000/svg">
<path d="M20.3499 20.9299H134.74C135.25 20.9299 135.67 21.3599 135.67 21.8999V131.7C135.67 132.24 135.26 132.67 134.74 132.67H20.3499C19.8399 132.67 19.4199 132.24 19.4199 131.7V21.8899C19.4199 21.3499 19.8299 20.9199 20.3499 20.9199V20.9299Z" fill="#314CB0" stroke="#1D2D68" stroke-width="4.85"/>
<path d="M48.94 67.2091L65.87 45.7991C69.33 41.4391 71.06 38.1691 71.06 36.0091C71.06 35.2191 70.96 34.5891 70.77 34.1191H100.32C98.08 35.3791 95.27 38.0291 91.89 42.0791C90.99 43.1391 89.39 45.0891 87.11 47.9191L64.93 75.5191L91.41 111.969C93.02 114.169 95.07 116.649 97.54 119.399C98.21 120.109 99.17 120.949 100.43 121.939H70.11C70.35 121.039 70.46 120.229 70.46 119.519C70.46 117.359 68.97 114.229 65.98 110.139L48.93 86.8991V110.429C48.93 115.899 50.03 119.729 52.23 121.929H24.52C26.05 120.399 27.04 118.649 27.47 116.679C27.71 115.579 27.82 113.509 27.82 110.489V45.5591C27.82 42.5291 27.7 40.4691 27.47 39.3691C27.04 37.3991 26.05 35.6491 24.52 34.1191H52.24C50.04 36.3191 48.94 40.1391 48.94 45.5591V67.2091Z" fill="white"/>
<path d="M128.15 57.4205V111.561C128.15 114.391 128.23 116.241 128.39 117.101C128.7 118.871 129.53 120.481 130.87 121.941H104.92C106.26 120.491 107.08 118.871 107.4 117.101C107.56 116.231 107.64 114.391 107.64 111.561V67.6805C107.64 64.8505 107.56 63.0205 107.4 62.1905C107.09 60.4605 106.28 58.8705 104.98 57.4105H128.16M117.89 26.5705C121.15 26.5705 123.93 27.7305 126.21 30.0505C128.53 32.3305 129.69 35.1005 129.69 38.3705C129.69 41.7105 128.55 44.5205 126.27 46.8005C124.03 49.0405 121.24 50.1605 117.89 50.1605C114.63 50.1605 111.83 49.0205 109.51 46.7405C107.23 44.4205 106.09 41.6305 106.09 38.3605C106.09 35.0205 107.21 32.2305 109.45 29.9805C111.73 27.7005 114.54 26.5605 117.88 26.5605" fill="white"/>
<path d="M103.96 25.5996H132.28V52.6296H103.96V25.5996Z" fill="#314CB0"/>
<path d="M129.84 20.95C129.84 27.55 124.47 32.9 117.85 32.9C111.23 32.9 105.86 27.55 105.86 20.95C105.86 14.35 111.23 9 117.85 9C124.47 9 129.84 14.35 129.84 20.95Z" fill="#FF7700"/>
</svg>
