<?xml version="1.0" encoding="UTF-8"?>
<svg id="Layer_1" xmlns="http://www.w3.org/2000/svg" version="1.1" viewBox="0 0 757.38 677.72">
  <!-- Generator: Adobe Illustrator 29.0.1, SVG Export Plug-In . SVG Version: 2.1.0 Build 192)  -->
  <defs>
    <style>
      .st0 {
        fill: #fbd64c;
      }

      .st1 {
        fill: #fd4154;
      }

      .st2 {
        fill: #032d4b;
      }
    </style>
  </defs>
  <path class="st2" d="M401.19,63.16c41.26-35.42,102.02-80.48,159.68-56.35,70,29.3,49.65,146.67,36.61,204.56,53.72,12.99,138.85,45.41,156.33,103.91,25.72,86.06-93.95,129.9-156.34,148.76,16.11,57.06,32.52,153.12-19.46,196.74-61.52,51.63-156.41-27.26-200.87-69.89-43.02,44.06-122.96,109.06-188.04,76.05-64.07-32.5-43.7-146.66-31.7-202.95-52.79-14.55-131.64-43.18-152.24-99.55-31.76-86.93,90.23-134.31,153.65-152.06-13.58-58.39-30.27-137.92,13.07-187.9,56.72-65.42,160.03,16.8,205.47,58.97,2.72.5,20.53-17.46,23.82-20.29ZM341.24,91.98c-70.34-64.14-168.39-108.35-161.46,36.05.48,10.04,6.75,63.45,11.99,68.61,2.28,2.25,5.43,2.79,8.51,2.83,23.99.3,66.78-10.61,93.96-13.04,21.14-1.89,42.69-3.1,63.9-4.05,14.43-.65,65.1,8.18,48.9-18.84-11.4-19.03-48.48-55.78-65.8-71.57ZM521.34,32.93c-29.03,3.1-87.52,42.75-107.73,64.1-3.55,3.75-7.31,5.97-7.04,11.98.23,5.24,30.82,41,36.41,48.56,12.64,17.05,25.21,34.25,36.99,51.91,12.75,19.12,31.54,58.12,44.12,72.74,4.63,5.38,11.39,7.22,16.84,1.97,5.9-5.68,25.49-72.33,28.48-84.38,11.5-46.32,34-175.66-48.08-166.89ZM451.22,452.67c8.83-22.08,63.83-96.81,64.36-114.99.15-5.21-2.84-9.66-4.86-14.12-8.44-18.56-45.46-85.32-57.31-99.51-4.95-5.93-8.56-7.81-16.27-8.71-23.59-2.73-93.47-2.8-116.98-.01-15.09,1.79-16.63,10.24-23.61,21.34-14.23,22.65-41.64,66.25-51.31,89.53-3.71,8.94-4.34,10.58-.87,19.88,6.21,16.67,46.87,86.49,58.15,101.66,6.34,8.52,9.8,10.24,20.64,11.33,15.8,1.59,110.22,1.97,121.17-1.79,2.5-.86,4.67-3.21,6.88-4.6ZM245.58,223.63c-59.07.85-300.31,70.36-189.56,158.9,17.18,13.74,80.42,45.7,101.05,47.88,3.15.33,6.08-.05,8.72-1.87,4.47-3.09,37.11-85.99,43.47-99.35,14.82-31.09,31.73-61.07,49-90.83,2.28-10.06-2.97-14.88-12.68-14.74ZM708.95,301.69c-17.25-16.08-85.82-51.79-108.24-54.13-6.21-.65-9.72,1.48-12.97,6.5-23.31,64.55-53.28,126.43-88.39,185.28-2.92,12.94,4.59,15.04,15.57,14.56,34.44-1.51,105.83-22.55,138.2-36.63,45.55-19.82,109.84-65.24,55.84-115.58ZM231.45,393.45c-16.69-9.49-19.36,9.89-23.68,21.13-19.14,49.9-57.62,184.39-6.89,222.62,37.29,28.09,117.91-28.85,143.8-56.82,3.35-3.62,6.19-5.24,6.07-11.01-.13-6.42-23.17-31.48-28.47-38.52-33.09-43.93-63.99-89.32-90.84-137.4ZM410.06,572.43c69.04,66.48,180.01,128.51,171.42-28.99-.56-10.18-6.08-56.9-10.11-63.79-2.96-5.06-7.23-4.73-12.38-4.66-30.35.37-73.71,11.5-106.91,13.99-31.64,2.37-63.48,1.95-95.15,3.77-6.73,4.63-7.49,8.33-4.07,15.53,5.97,12.56,45.32,52.72,57.19,64.15Z"/>
  <path class="st1" d="M708.95,301.69c54.01,50.33-10.29,95.75-55.84,115.58-32.37,14.08-103.76,35.13-138.2,36.63-10.98.48-18.49-1.62-15.57-14.56,35.1-58.85,65.08-120.73,88.39-185.28,3.25-5.02,6.76-7.15,12.97-6.5,22.42,2.34,90.99,38.06,108.24,54.13Z"/>
  <path class="st1" d="M245.58,223.63c9.72-.14,14.97,4.67,12.68,14.74-17.27,29.75-34.18,59.74-49,90.83-6.37,13.36-39,96.26-43.47,99.35-2.64,1.82-5.57,2.2-8.72,1.87-20.64-2.19-83.87-34.14-101.05-47.88-110.74-88.54,130.5-158.05,189.56-158.9Z"/>
  <path class="st1" d="M231.45,393.45c26.84,48.07,57.75,93.47,90.84,137.4,5.3,7.04,28.34,32.1,28.47,38.52.12,5.77-2.72,7.39-6.07,11.01-25.9,27.98-106.52,84.92-143.8,56.82-50.74-38.23-12.26-172.72,6.89-222.62,4.31-11.24,6.99-30.62,23.68-21.13Z"/>
  <path class="st1" d="M521.34,32.93c82.08-8.77,59.58,120.56,48.08,166.89-2.99,12.05-22.58,78.7-28.48,84.38-5.45,5.24-12.21,3.41-16.84-1.97-12.58-14.62-31.37-53.63-44.12-72.74-11.78-17.66-24.35-34.86-36.99-51.91-5.6-7.56-36.18-43.32-36.41-48.56-.27-6.01,3.49-8.23,7.04-11.98,20.2-21.35,78.69-61,107.73-64.1Z"/>
  <path class="st1" d="M341.24,91.98c17.31,15.79,54.39,52.54,65.8,71.57,16.2,27.02-34.47,18.19-48.9,18.84-21.21.95-42.75,2.16-63.9,4.05-27.18,2.43-69.97,13.35-93.96,13.04-3.08-.04-6.24-.58-8.51-2.83-5.24-5.17-11.51-58.58-11.99-68.61-6.93-144.41,91.12-100.19,161.46-36.05Z"/>
  <path class="st1" d="M410.06,572.43c-11.87-11.43-51.22-51.59-57.19-64.15-3.43-7.2-2.67-10.9,4.07-15.53,31.67-1.82,63.51-1.4,95.15-3.77,33.2-2.49,76.56-13.62,106.91-13.99,5.15-.06,9.42-.4,12.38,4.66,4.03,6.89,9.55,53.61,10.11,63.79,8.59,157.5-102.38,95.47-171.42,28.99Z"/>
  <path class="st0" d="M451.22,452.67c-2.22,1.4-4.38,3.74-6.88,4.6-10.95,3.76-105.37,3.38-121.17,1.79-10.84-1.09-14.3-2.81-20.64-11.33-11.28-15.16-51.94-84.99-58.15-101.66-3.46-9.3-2.84-10.94.87-19.88,9.66-23.27,37.08-66.88,51.31-89.53,6.98-11.11,8.52-19.55,23.61-21.34,23.51-2.79,93.39-2.72,116.98.01,7.71.89,11.32,2.78,16.27,8.71,11.85,14.19,48.87,80.95,57.31,99.51,2.03,4.46,5.02,8.9,4.86,14.12-.53,18.19-55.53,92.92-64.36,114.99ZM332.45,240.6c-6.44,1.04-10.17,3.9-14.19,8.79-8.33,10.14-38.26,63.26-43.69,76.17-4.04,9.59-4.86,11.2-1.01,21.31,4.82,12.65,34.8,64.12,43.34,75.52,4.62,6.17,6.76,9.6,15.24,10.74,15.96,2.14,77.09,2.15,93.03,0,6.59-.89,10.24-3.75,14.27-8.71,6.24-7.69,41.88-69.87,45-78.85,1.16-3.34,2.27-6.01,2.06-9.7-.34-5.87-39.15-74.65-45.09-82.84s-8.51-11.51-19.26-12.71c-16.54-1.85-74.02-2.24-89.7.29Z"/>
  <path class="st2" d="M332.45,240.6c15.68-2.53,73.16-2.14,89.7-.29,10.75,1.2,13.32,4.52,19.26,12.71s44.75,76.97,45.09,82.84c.22,3.69-.89,6.36-2.06,9.7-3.12,8.98-38.76,71.16-45,78.85-4.03,4.96-7.68,7.82-14.27,8.71-15.94,2.15-77.07,2.14-93.03,0-8.47-1.14-10.62-4.56-15.24-10.74-8.54-11.4-38.52-62.87-43.34-75.52-3.85-10.1-3.03-11.72,1.01-21.31,5.43-12.91,35.36-66.03,43.69-76.17,4.02-4.89,7.74-7.75,14.19-8.79ZM421.25,273.67c-3.06-2.96-6.85-4.76-11.12-5.36-10.36-1.45-52.71-1.52-62.94,0-3.82.57-5.34,1.49-8.41,3.58-3.88,2.64-33.11,51.53-34.79,57.1-1.2,3.98-1.82,7.57-1.28,11.74.64,4.93,26.26,49.67,30.58,55.31,4.87,6.36,7.41,9.05,15.86,10.11,10.66,1.35,50.58,1.47,60.89-.13,2.84-.44,6.13-1.88,8.52-3.47,3.66-2.43,33.16-51.73,34.78-57.12,1.19-3.96,1.62-6.56,1.3-10.76-.43-5.67-28.78-56.54-33.38-61Z"/>
  <path class="st0" d="M421.25,273.67c4.6,4.46,32.95,55.33,33.38,61,.32,4.2-.11,6.8-1.3,10.76-1.62,5.39-31.12,54.69-34.78,57.12-2.39,1.59-5.68,3.03-8.52,3.47-10.32,1.6-50.23,1.48-60.89.13-8.45-1.07-10.98-3.75-15.86-10.11-4.32-5.64-29.94-50.38-30.58-55.31-.54-4.17.08-7.76,1.28-11.74,1.69-5.57,30.91-54.46,34.79-57.1,3.07-2.09,4.59-3.01,8.41-3.58,10.23-1.52,52.58-1.45,62.94,0,4.27.6,8.06,2.4,11.12,5.36ZM360.4,294.5c-8.96,1.82-25.95,29.41-27.48,37.45-2.1,11.04,13.8,41.23,23.71,45.74,8.07,3.67,35.47,3.96,43.68.64s25.41-34.05,25.04-42.38c-.31-6.97-16.85-35.52-23.03-38.87-6.58-3.57-34.24-4.13-41.92-2.57Z"/>
  <path class="st2" d="M360.4,294.5c7.68-1.56,35.34-1,41.92,2.57,6.18,3.36,22.72,31.91,23.03,38.87.37,8.33-17.05,39.16-25.04,42.38s-35.61,3.03-43.68-.64c-9.91-4.51-25.81-34.7-23.71-45.74,1.53-8.04,18.51-35.63,27.48-37.45ZM366.03,348.83c13.93,15.27,39.26-3.64,26.6-22.09s-43.41,3.67-26.6,22.09Z"/>
  <path class="st0" d="M366.03,348.83c-16.81-18.42,13.75-40.82,26.6-22.09s-12.67,37.36-26.6,22.09Z"/>
</svg>