<svg width="76" height="73" viewBox="0 0 76 73" fill="none" xmlns="http://www.w3.org/2000/svg">
<path d="M38.065 43.0447C41.719 43.0447 44.681 40.0987 44.681 36.4667C44.681 32.8337 41.719 29.8887 38.065 29.8887C34.411 29.8887 31.449 32.8337 31.449 36.4667C31.449 40.0987 34.411 43.0447 38.065 43.0447Z" fill="#139FCD"/>
<path d="M38.065 49.9413C57.671 49.9413 73.565 43.9083 73.565 36.4653C73.565 29.0223 57.671 22.9883 38.065 22.9883C18.459 22.9883 2.565 29.0223 2.565 36.4653C2.565 43.9083 18.459 49.9413 38.065 49.9413Z" stroke="#139FCD" stroke-width="3"/>
<path d="M26.327 43.2048C36.13 60.0868 49.332 70.7558 55.815 67.0338C62.298 63.3128 59.607 46.6098 49.804 29.7278C40.001 12.8458 26.798 2.1772 20.315 5.8988C13.832 9.6198 16.524 26.3228 26.327 43.2048Z" stroke="#139FCD" stroke-width="3"/>
<path d="M26.327 29.7278C16.524 46.6098 13.832 63.3128 20.315 67.0338C26.798 70.7558 40.001 60.0868 49.804 43.2048C59.607 26.3228 62.298 9.6198 55.815 5.8988C49.332 2.1772 36.13 12.8458 26.327 29.7278Z" stroke="#139FCD" stroke-width="3"/>
</svg>
