<svg width="700" height="700" viewBox="0 0 700 700" fill="none" xmlns="http://www.w3.org/2000/svg">
<rect width="700" height="700" rx="100" fill="#635BFF"/>
<path fill-rule="evenodd" clip-rule="evenodd" d="M320.145 266.588C320.145 248.802 334.709 241.962 358.83 241.962C393.419 241.962 437.11 252.451 471.699 271.148V163.978C433.924 148.929 396.605 143 358.83 143C266.441 143 205 191.341 205 272.06C205 397.929 377.945 377.863 377.945 432.132C377.945 453.11 359.74 459.951 334.254 459.951C296.479 459.951 248.236 444.445 210.006 423.467V532.005C252.332 550.247 295.113 558 334.254 558C428.918 558 494 511.027 494 429.396C493.545 293.494 320.145 317.665 320.145 266.588Z" fill="white"/>
</svg>
