<svg width="700" height="700" viewBox="0 0 700 700" fill="none" xmlns="http://www.w3.org/2000/svg">
<rect width="700" height="700" rx="100" fill="#3178C6"/>
<path fill-rule="evenodd" clip-rule="evenodd" d="M434.548 537.852V597.169C445.307 602.488 456.774 606.232 468.596 608.286C482.258 610.812 496.125 612.055 510.018 611.998C523.558 612.062 537.067 610.695 550.32 607.918C562.219 605.51 573.572 600.922 583.809 594.385C593.312 588.24 601.144 579.83 606.604 569.908C616.383 549.362 617.673 525.781 610.194 504.288C607.038 496.25 602.336 488.913 596.355 482.692C589.935 476.077 582.642 470.372 574.679 465.736C565.511 460.357 555.986 455.616 546.17 451.544C538.449 448.335 531.501 445.216 525.324 442.187C519.838 439.556 514.588 436.457 509.632 432.926C505.75 430.2 502.378 426.81 499.672 422.911C497.334 419.371 496.116 415.206 496.178 410.962C496.127 407.056 497.214 403.22 499.305 399.923C501.577 396.472 504.608 393.588 508.165 391.493C512.513 388.929 517.244 387.081 522.178 386.021C528.235 384.674 534.426 384.025 540.631 384.088C545.849 384.106 551.059 384.481 556.226 385.209C561.806 385.965 567.327 387.108 572.749 388.631C578.263 390.162 583.657 392.101 588.885 394.432C593.958 396.697 598.811 399.428 603.381 402.591V347.237C593.867 343.632 584.001 341.04 573.945 339.504C561.803 337.734 549.542 336.9 537.272 337.01C523.859 336.937 510.486 338.462 497.433 341.553C485.635 344.254 474.416 349.054 464.311 355.725C454.924 361.989 447.173 370.415 441.709 380.298C435.918 391.274 433.052 403.56 433.39 415.97C432.962 432.38 438.358 448.411 448.619 461.212C461.207 475.404 477.081 486.285 494.847 492.9C502.953 496.251 510.513 499.532 517.526 502.741C523.854 505.561 529.936 508.905 535.709 512.737C540.365 515.771 544.454 519.599 547.791 524.047C550.726 528.082 552.283 532.957 552.231 537.948C552.257 541.689 551.299 545.37 549.451 548.621C547.399 552.114 544.514 555.043 541.055 557.147C536.727 559.79 531.992 561.698 527.042 562.793C520.594 564.237 513.999 564.918 507.393 564.823C494.428 564.799 481.566 562.509 469.387 558.056C456.664 553.457 444.865 546.614 434.548 537.852ZM335.066 390.178H412.273V341.321H197V390.178H273.86V607.764H335.066V390.178Z" fill="white"/>
</svg>
